<svg width="16" height="11" viewBox="0 0 16 11" fill="none" xmlns="http://www.w3.org/2000/svg">
<path d="M15.6718 2.65668L9.09178 10.2244C8.95851 10.3777 8.7916 10.5011 8.60292 10.5857C8.41424 10.6704 8.20839 10.7143 8 10.7143C7.7916 10.7143 7.58576 10.6704 7.39708 10.5857C7.2084 10.5011 7.0415 10.3777 6.90822 10.2244L0.32822 2.65668C0.15577 2.45822 0.0459405 2.21687 0.0115758 1.96086C-0.0227889 1.70485 0.0197345 1.44477 0.13417 1.21105C0.248604 0.977318 0.430221 0.779606 0.657773 0.641039C0.885325 0.502472 1.1494 0.42878 1.41911 0.428581L14.5809 0.428581C14.8506 0.428781 15.1147 0.502472 15.3422 0.641039C15.5698 0.779606 15.7514 0.977318 15.8658 1.21105C15.9803 1.44477 16.0228 1.70485 15.9884 1.96086C15.9541 2.21687 15.8442 2.45822 15.6718 2.65668Z" fill="#999999"/>
</svg>
