<svg width="14" height="9" viewBox="0 0 14 9" fill="none" xmlns="http://www.w3.org/2000/svg">
<path d="M0.287191 7.05041L6.04469 0.428656C6.16131 0.294508 6.30735 0.186565 6.47245 0.112484C6.63754 0.0384026 6.81765 2.98009e-07 7 3.0598e-07C7.18235 3.1395e-07 7.36246 0.0384026 7.52756 0.112484C7.69265 0.186565 7.83869 0.294508 7.95531 0.428656L13.7128 7.05041C13.8637 7.22407 13.9598 7.43525 13.9899 7.65925C14.0199 7.88326 13.9827 8.11083 13.8826 8.31534C13.7825 8.51986 13.6236 8.69285 13.4244 8.8141C13.2253 8.93535 12.9943 8.99983 12.7583 9L1.24172 9C1.00573 8.99983 0.774657 8.93534 0.575549 8.8141C0.376441 8.69285 0.217528 8.51985 0.117397 8.31534C0.0172667 8.11083 -0.0199407 7.88326 0.0101281 7.65925C0.0401969 7.43525 0.136299 7.22406 0.287191 7.05041Z" fill="white"/>
</svg>
