<svg width="14" height="14" viewBox="0 0 14 14" fill="none" xmlns="http://www.w3.org/2000/svg">
<path d="M7.00016 0.166687C7.55359 0.166651 8.08605 0.37839 8.48832 0.758468C8.89058 1.13855 9.13216 1.65815 9.1635 2.21069L9.16683 2.33335H12.6668C12.7935 2.33339 12.9155 2.38152 13.008 2.468C13.1006 2.55449 13.1569 2.67289 13.1655 2.79927C13.1741 2.92566 13.1345 3.05062 13.0545 3.14889C12.9746 3.24716 12.8603 3.31142 12.7348 3.32869L12.6668 3.33335H12.1362L11.2828 12.0134C11.2401 12.4461 11.0449 12.8495 10.7322 13.1517C10.4194 13.4538 10.0095 13.6349 9.5755 13.6627L9.45816 13.6667H4.54216C4.10714 13.6667 3.68629 13.512 3.35483 13.2302C3.02338 12.9485 2.80291 12.558 2.73283 12.1287L2.7175 12.0127L1.8635 3.33335H1.3335C1.21267 3.33335 1.09593 3.28959 1.00488 3.21018C0.913817 3.13076 0.854595 3.02106 0.838163 2.90135L0.833496 2.83335C0.833501 2.71253 0.877258 2.59579 0.956674 2.50473C1.03609 2.41367 1.14579 2.35445 1.2655 2.33802L1.3335 2.33335H4.8335C4.8335 1.75872 5.06177 1.20762 5.4681 0.801289C5.87443 0.39496 6.42553 0.166687 7.00016 0.166687ZM11.1315 3.33335H2.86816L3.71283 11.9147C3.73153 12.1062 3.81591 12.2853 3.95165 12.4216C4.08738 12.558 4.26611 12.6431 4.4575 12.6627L4.54216 12.6667H9.45816C9.85816 12.6667 10.1975 12.3834 10.2748 11.9987L10.2882 11.9147L11.1308 3.33335H11.1315ZM8.16683 5.16669C8.28765 5.16669 8.40439 5.21045 8.49545 5.28987C8.58651 5.36928 8.64573 5.47898 8.66216 5.59869L8.66683 5.66669V10.3334C8.66679 10.46 8.61867 10.582 8.53218 10.6745C8.4457 10.7671 8.3273 10.8234 8.20091 10.832C8.07452 10.8407 7.94957 10.801 7.8513 10.7211C7.75303 10.6411 7.68876 10.5269 7.6715 10.4014L7.66683 10.3334V5.66669C7.66683 5.53408 7.71951 5.4069 7.81328 5.31313C7.90704 5.21937 8.03422 5.16669 8.16683 5.16669ZM5.8335 5.16669C5.95432 5.16669 6.07106 5.21045 6.16212 5.28987C6.25318 5.36928 6.3124 5.47898 6.32883 5.59869L6.3335 5.66669V10.3334C6.33346 10.46 6.28533 10.582 6.19885 10.6745C6.11236 10.7671 5.99396 10.8234 5.86758 10.832C5.74119 10.8407 5.61623 10.801 5.51796 10.7211C5.41969 10.6411 5.35543 10.5269 5.33816 10.4014L5.3335 10.3334V5.66669C5.3335 5.53408 5.38617 5.4069 5.47994 5.31313C5.57371 5.21937 5.70089 5.16669 5.8335 5.16669ZM7.00016 1.16669C6.70737 1.1667 6.42528 1.2768 6.2099 1.47514C5.99452 1.67348 5.86159 1.94555 5.8375 2.23735L5.8335 2.33335H8.16683C8.16683 2.02393 8.04391 1.72719 7.82512 1.5084C7.60633 1.2896 7.30958 1.16669 7.00016 1.16669Z" fill="white"/>
</svg>
